<svg xmlns="http://www.w3.org/2000/svg" viewBox="0 0 103.33 82.11"><defs><style>.cls-1,.cls-2,.cls-3{fill:none;}.cls-1{stroke:#d1d3d4;}.cls-1,.cls-2,.cls-3,.cls-4{stroke-miterlimit:10;}.cls-2,.cls-3,.cls-4{stroke:#231f20;}.cls-3{stroke-width:0.97px;}.cls-4{fill:#f05756;}</style></defs><title>Asset 3</title><g id="Layer_2" data-name="Layer 2"><g id="Layer_1-2" data-name="Layer 1"><rect class="cls-1" x="32.38" y="75.36" width="68.63" height="6.25"/><rect class="cls-1" x="32.38" y="69.17" width="68.63" height="6.25"/><rect class="cls-1" x="32.38" y="62.98" width="68.63" height="6.25"/><rect class="cls-1" x="32.38" y="56.73" width="68.63" height="6.25"/><rect class="cls-1" x="32.38" y="50.48" width="68.63" height="6.25"/><rect class="cls-1" x="32.38" y="19.23" width="68.63" height="6.25"/><rect class="cls-1" x="32.38" y="25.48" width="68.63" height="6.25"/><rect class="cls-1" x="32.38" y="31.73" width="68.63" height="6.25"/><rect class="cls-1" x="32.38" y="37.98" width="68.63" height="6.25"/><rect class="cls-1" x="32.38" y="44.23" width="68.63" height="6.25"/><rect class="cls-1" x="32.38" y="12.98" width="68.63" height="6.25"/><rect class="cls-1" x="32.38" y="6.73" width="68.63" height="6.25"/><line class="cls-2" y1="81.61" x2="103.33" y2="81.61"/><rect class="cls-2" x="2.13" y="75.36" width="30.24" height="6.25"/><rect class="cls-2" x="2.13" y="69.17" width="30.24" height="6.25"/><rect class="cls-2" x="2.13" y="62.98" width="30.24" height="6.25"/><rect class="cls-2" x="2.13" y="56.73" width="30.24" height="6.25"/><rect class="cls-2" x="2.13" y="50.48" width="30.24" height="6.25"/><rect class="cls-2" x="70.76" y="50.48" width="30.24" height="6.25"/><rect class="cls-3" x="2.13" y="19.23" width="30.24" height="6.25"/><rect class="cls-3" x="2.13" y="25.48" width="30.24" height="6.25"/><rect class="cls-3" x="2.13" y="31.73" width="30.24" height="6.25"/><rect class="cls-3" x="2.13" y="37.98" width="30.24" height="6.25"/><rect class="cls-3" x="2.13" y="44.23" width="30.24" height="6.25"/><rect class="cls-3" x="2.13" y="12.98" width="30.24" height="6.25"/><rect class="cls-3" x="77.5" y="19.23" width="23.5" height="6.25"/><rect class="cls-3" x="77.5" y="25.48" width="23.5" height="6.25"/><rect class="cls-4" x="70.76" y="31.73" width="30.24" height="6.25"/><rect class="cls-3" x="70.76" y="37.98" width="30.24" height="6.25"/><rect class="cls-3" x="70.76" y="44.23" width="30.24" height="6.25"/><rect class="cls-3" x="77.5" y="12.98" width="23.5" height="6.25"/><rect class="cls-3" x="2.13" y="6.73" width="30.24" height="6.25"/><rect class="cls-3" x="2.13" y="0.48" width="30.24" height="6.25"/></g></g></svg>