<svg xmlns="http://www.w3.org/2000/svg" viewBox="0 0 65.79 81.99"><defs><style>.cls-1,.cls-2{fill:none;}.cls-1{stroke:#d1d3d4;}.cls-1,.cls-2,.cls-3{stroke-miterlimit:10;}.cls-2,.cls-3{stroke:#231f20;}.cls-3{fill:#f05756;}</style></defs><title>Asset 4</title><g id="Layer_2" data-name="Layer 2"><g id="Layer_1-2" data-name="Layer 1"><rect class="cls-1" x="2.7" y="75.24" width="17.42" height="6.25"/><rect class="cls-1" x="2.7" y="69.06" width="17.42" height="6.25"/><rect class="cls-1" x="2.7" y="62.87" width="17.42" height="6.25"/><rect class="cls-1" x="2.7" y="56.62" width="17.42" height="6.25"/><rect class="cls-1" x="2.7" y="50.37" width="17.42" height="6.25"/><rect class="cls-1" x="2.7" y="44.12" width="26.84" height="6.25"/><rect class="cls-1" x="2.7" y="37.94" width="26.84" height="6.25"/><rect class="cls-1" x="2.7" y="31.69" width="26.84" height="6.25"/><rect class="cls-1" x="2.7" y="25.5" width="26.84" height="6.25"/><rect class="cls-1" x="3.73" y="19.22" width="13.39" height="6.25"/><rect class="cls-1" x="3.73" y="13.06" width="13.39" height="6.25"/><rect class="cls-1" x="3.73" y="6.75" width="13.39" height="6.25"/><rect class="cls-1" x="3.73" y="0.5" width="13.39" height="6.25"/><line class="cls-2" y1="81.49" x2="65.79" y2="81.49"/><rect class="cls-2" x="20.13" y="75.24" width="42.58" height="6.25"/><rect class="cls-2" x="20.13" y="69.06" width="42.58" height="6.25"/><rect class="cls-2" x="20.13" y="62.87" width="42.58" height="6.25"/><rect class="cls-2" x="20.13" y="56.62" width="42.58" height="6.25"/><rect class="cls-2" x="20.13" y="50.5" width="42.58" height="6.25"/><rect class="cls-3" x="29.55" y="44.25" width="33.16" height="6.25"/><rect class="cls-2" x="29.55" y="38" width="33.16" height="6.25"/><rect class="cls-2" x="29.55" y="31.75" width="33.16" height="6.25"/><rect class="cls-2" x="29.55" y="25.5" width="33.16" height="6.25"/><rect class="cls-2" x="17.13" y="19.25" width="45.58" height="6.25"/><rect class="cls-2" x="17.13" y="13" width="45.58" height="6.25"/><rect class="cls-2" x="17.13" y="6.75" width="45.58" height="6.25"/><rect class="cls-2" x="17.13" y="0.5" width="45.58" height="6.25"/></g></g></svg>