<?xml version="1.0" encoding="UTF-8"?>
<svg width="212px" height="131px" viewBox="0 0 212 131" version="1.1" xmlns="http://www.w3.org/2000/svg" xmlns:xlink="http://www.w3.org/1999/xlink">
    <!-- Generator: Sketch 42 (36781) - http://www.bohemiancoding.com/sketch -->
    <title>Page 1</title>
    <desc>Created with Sketch.</desc>
    <defs></defs>
    <g id="Mobile" stroke="none" stroke-width="1" fill="none" fill-rule="evenodd" stroke-linecap="round">
        <g id="Product-Page-/-Added" transform="translate(-87.000000, -358.000000)" stroke-width="2" stroke="#2E2E2E">
            <g id="header" transform="translate(0.000000, 40.000000)">
                <g id="Page-1" transform="translate(88.000000, 319.000000)">
                    <polygon id="Stroke-1" points="0.377150943 0.189692511 18.4903585 0.189692511 18.4903585 7.76659559 38.4907358 7.76659559 38.4907358 0.189692511 61.8867736 0.189692511 61.8867736 3.78862203 161.131868 3.78862203 161.131868 0.000454625551 169.622434 0.000454625551 169.622434 5.87251189 187.735642 5.87251189 187.735642 0.378930396 204.150736 0.378930396 204.150736 19.8903225 209.245075 19.8903225 209.245075 32.3925251 203.773755 32.3925251 203.773755 43.7581639 209.434132 43.7581639 209.434132 70.8458907 203.962245 70.8458907 203.962245 93.3879304 209.245075 93.3879304 209.245075 107.215935 203.584698 107.215935 203.584698 128.432173 154.339415 128.432173 154.339415 90.7357586 111.320547 90.7357586 111.320547 75.5819524 78.4903585 75.5819524 78.4903585 90.9255648 63.5848868 90.9255648 63.5848868 107.026697 57.1699811 107.026697 57.1699811 120.665463 63.3963962 120.665463 63.3963962 128.621411 35.283 128.621411 35.283 124.264393 20.7545094 124.264393 20.7545094 128.810648 0.377150943 128.810648 0.377150943 93.5771683 6.60356604 93.5771683 6.60356604 82.0222916 0.377150943 82.0222916 0.377150943 68.572763 6.41507547 68.572763 6.41507547 45.8414855 0.377150943 45.8414855"></polygon>
                    <polyline id="Stroke-3" points="63.5848868 90.9252806 63.5848868 50.3880251 147.736019 50.3880251 147.736019 76.90747 158.867717 76.90747 158.867717 94.3349722 165.471679 94.3349722"></polyline>
                    <polyline id="Stroke-4" points="203.584755 107.215935 165.471736 107.215935 165.471736 32.3919568 203.773811 32.3919568"></polyline>
                    <path d="M209.622623,57.3966463 L165.094132,57.3966463" id="Stroke-5"></path>
                    <path d="M204.150792,82.4010515 L165.660226,82.4010515" id="Stroke-7"></path>
                    <path d="M154.339472,90.7357586 L158.679283,90.7357586" id="Stroke-8"></path>
                    <path d="M111.320547,75.5816683 L111.320547,50.1982189" id="Stroke-9"></path>
                    <path d="M111.132057,43.9474018 L111.132057,3.59938414" id="Stroke-10"></path>
                    <polyline id="Stroke-11" points="61.8867736 3.78862203 61.8867736 43.9474018 161.131868 43.9474018 161.131868 40.1592344 161.131868 3.78862203"></polyline>
                    <path d="M165.471679,40.3481881 L161.131868,40.3481881" id="Stroke-12"></path>
                    <path d="M136.226208,3.78862203 L136.226208,43.7575956" id="Stroke-13"></path>
                    <path d="M136.037717,50.387741 L136.037717,90.7357586" id="Stroke-14"></path>
                    <path d="M86.2263962,43.9474018 L86.2263962,3.97842819" id="Stroke-15"></path>
                    <path d="M6.60356604,82.0222916 L63.7733774,82.0222916" id="Stroke-16"></path>
                    <polyline id="Stroke-17" points="35.4714906 82.0222916 35.4714906 26.8989436 43.2075283 26.8989436 43.2075283 31.634437 62.0752642 31.634437"></polyline>
                    <path d="M38.4907358,7.76659559 L38.4907358,26.8989436" id="Stroke-18"></path>
                    <path d="M0.000169811321,32.2027189 L35.4714906,32.2027189" id="Stroke-19"></path>
                    <path d="M6.22658491,57.3966463 L35.0945094,57.3966463" id="Stroke-21"></path>
                    <polyline id="Stroke-22" points="43.2075283 82.4010515 43.2075283 96.0398181 30.3771509 96.0398181 30.3771509 124.264677"></polyline>
                    <polyline id="Stroke-23" points="59.2451321 75.9604282 42.4530566 75.9604282 42.4530566 38.0747762 53.2077736 38.0747762 53.018717 70.4668467"></polyline>
                    <path d="M63.3963962,57.0178863 L53.207717,57.0178863" id="Stroke-24"></path>
                </g>
            </g>
        </g>
    </g>
</svg>