<svg xmlns="http://www.w3.org/2000/svg" viewBox="0 0 139.48 86.88"><defs><style>.cls-1{fill:#f05656;}.cls-2{fill:none;stroke:#231f20;stroke-miterlimit:10;}</style></defs><title>Asset 1</title><g id="Layer_2" data-name="Layer 2"><g id="Layer_1-2" data-name="Layer 1"><polygon class="cls-1" points="3.69 22.79 25.33 22.79 25.33 39.02 3.8 39.02 3.69 22.79"/><polyline class="cls-2" points="104.83 5.33 56.71 5.33 56.71 12.65 41.44 12.65 41.44 2.99 12.75 2.99 12.75 22.79 3.69 22.79 3.86 47.79 7.21 47.79 7.21 54.84 3.69 54.84 3.69 71.61 12.92 71.61 12.92 82.02 43.29 82.02 43.29 60.37 81.55 60.37 81.55 49.63 109.47 49.63 109.47 38.39"/><line class="cls-2" x1="83.57" y1="35.03" x2="99.18" y2="35.03"/><line class="cls-2" x1="97.99" y1="35.03" x2="97.99" y2="49.58"/><polyline class="cls-2" points="103.64 35.03 105.21 35.03 105.21 46.36"/><line class="cls-2" x1="97.99" y1="37.22" x2="105.21" y2="37.22"/><line class="cls-2" x1="41.36" y1="18.67" x2="35.91" y2="18.67"/><polyline class="cls-2" points="33.39 18.59 25.33 18.59 25.33 29.33"/><line class="cls-2" x1="25.5" y1="32.01" x2="25.5" y2="45.44"/><line class="cls-2" x1="25.5" y1="48.12" x2="25.5" y2="55.17"/><polyline class="cls-2" points="33.73 54.84 43.29 54.84 43.29 60.37"/><line class="cls-2" x1="28.86" y1="54.84" x2="31.71" y2="54.84"/><line class="cls-2" x1="7.21" y1="54.84" x2="26.76" y2="54.84"/><line class="cls-2" x1="36.41" y1="38.39" x2="43.29" y2="38.39"/><polyline class="cls-2" points="30.03 28.83 30.03 25.3 30.03 23.12 36.58 23.12 36.58 50.39 29.95 50.39 29.95 45.61"/><line class="cls-2" x1="36.58" y1="25.13" x2="30.03" y2="25.13"/><line class="cls-2" x1="30.03" y1="31.34" x2="30.03" y2="35.96"/><line class="cls-2" x1="30.03" y1="38.39" x2="30.03" y2="43.09"/><line class="cls-2" x1="3.8" y1="39.02" x2="25.5" y2="39.02"/><line class="cls-2" x1="12.75" y1="22.79" x2="25.33" y2="22.79"/><line class="cls-2" x1="29.95" y1="48.77" x2="36.49" y2="48.77"/><polyline class="cls-2" points="31.04 54.84 31.04 65.08 22.31 65.08 22.31 82.02"/><polyline class="cls-2" points="43.29 34.85 43.29 50.14 39.68 50.14 39.68 51.93"/><polyline class="cls-2" points="134.03 17.73 134.03 25.09 135.69 25.09 135.69 54.07 104.22 54.07 104.22 49.46"/><polyline class="cls-2" points="64.63 34.98 72.85 35.03 81.21 35.03"/><polyline class="cls-2" points="62.19 34.97 39.85 34.85 39.85 38.39"/><line class="cls-2" x1="72.59" y1="60.29" x2="72.59" y2="34.94"/><line class="cls-2" x1="56.71" y1="12.65" x2="56.71" y2="30.13"/><line class="cls-2" x1="80.67" y1="30.13" x2="94.32" y2="30.13"/><line class="cls-2" x1="64.8" y1="30.13" x2="78.27" y2="30.13"/><line class="cls-2" x1="52.62" y1="30.13" x2="62.45" y2="30.13"/><polyline class="cls-2" points="41.44 12.65 41.44 30.13 50.23 30.13"/><line class="cls-2" x1="88.67" y1="30.13" x2="88.67" y2="5.33"/><line class="cls-2" x1="72.59" y1="30.13" x2="72.59" y2="5.33"/><line class="cls-2" x1="56.71" y1="34.94" x2="56.71" y2="60.29"/><polyline class="cls-2" points="12.75 2.99 3.69 2.99 3.69 22.79"/><line class="cls-2" x1="12.75" y1="16.14" x2="3.69" y2="16.14"/><line class="cls-2" x1="7.74" y1="2.99" x2="7.74" y2="16.14"/><polyline class="cls-2" points="3.81 18.59 9.23 18.59 9.23 22.79"/><polyline class="cls-2" points="109.47 36.05 109.47 17.69 135.69 17.69 135.69 9.76 133.85 9.76 133.85 2.92 130.24 2.92 104.83 2.92 104.83 30.16 96.7 30.13"/><polyline class="cls-2" points="104.22 54.07 104.22 60.8 104.22 69.08 135.69 69.08 135.69 54.07"/><polyline class="cls-2" points="120.8 69.08 120.8 60.86 104.22 60.86"/><line class="cls-2" x1="109.47" y1="33.53" x2="117.59" y2="33.53"/><line class="cls-2" x1="129.83" y1="33.53" x2="135.69" y2="33.53"/><line class="cls-2" x1="109.47" y1="17.69" x2="108.21" y2="17.69"/><polyline class="cls-2" points="73.49 60.37 73.49 64.4 43.29 64.4"/><polyline class="cls-2" points="30.45 82.02 30.45 86.38 42.78 86.38 42.78 81.93"/><polyline class="cls-2" points="4.19 71.61 4.19 75.81 12.83 75.81"/><polyline class="cls-2" points="3.81 41.74 0.5 41.74 0.5 55.17 3.69 55.17"/><path class="cls-2" d="M25.5,45.18,23.56,47a2.45,2.45,0,0,0,1.94,1.35"/><path class="cls-2" d="M26.47,54.84l.72,2.08s2-.81,1.88-2.08"/><path class="cls-2" d="M36.41,50.14l1.24-2.25a2.74,2.74,0,0,1,1.83,2.25"/><path class="cls-2" d="M78,30.16,78.78,28a2.67,2.67,0,0,1,2.07,2.14"/><path class="cls-2" d="M62.19,30.16,62.94,28A2.67,2.67,0,0,1,65,30.13"/><path class="cls-2" d="M50,30.16,50.75,28a2.67,2.67,0,0,1,2.07,2.14"/><path class="cls-2" d="M64.8,35,64,37.14A2.67,2.67,0,0,1,62,35"/><path class="cls-2" d="M83.78,35,83,37.14A2.67,2.67,0,0,1,80.95,35"/><path class="cls-2" d="M94.1,30.16,94.86,28a2.67,2.67,0,0,1,2.07,2.14"/><path class="cls-2" d="M25.5,29.07l-1.94,1.84a2.45,2.45,0,0,0,1.94,1.35"/><path class="cls-2" d="M31.39,54.84s.41,1.8,1.91,1.86L34,54.84"/><path class="cls-2" d="M10.49,71.61a2.16,2.16,0,0,0,2.34,2.52"/><path class="cls-2" d="M105.21,49.46,102.61,48c.55-1.44,2.6-1.94,2.6-1.94"/><polyline class="cls-2" points="56.71 8.1 50.21 8.1 50.21 12.65"/><polyline class="cls-2" points="81.55 58.27 89.1 58.27 89.1 49.63"/><path class="cls-2" d="M39.85,34.85s-.92,3-3.27,2.74"/><path class="cls-2" d="M33,18.59l1-1.88a5.19,5.19,0,0,1,2.41,2"/><path class="cls-2" d="M39.48,51.65l1.8.94a5.18,5.18,0,0,1-1.8,2.25"/><polyline class="cls-2" points="106.06 2.92 106.06 0.5 58.87 0.5 58.87 5.33"/><polyline class="cls-2" points="130.24 2.92 130.24 0.5 138.98 0.5 138.98 14.66 135.69 14.66"/><polyline class="cls-2" points="135.69 17.69 138.98 17.69 138.98 29.07 135.69 29.07"/><path class="cls-2" d="M104.84,17.69a4.44,4.44,0,0,1,3-2.34l.63,2.34"/><path class="cls-2" d="M109.47,35.72l2,1.5a3.19,3.19,0,0,1-2,1.39"/><line class="cls-2" x1="56.71" y1="60.29" x2="56.71" y2="64.4"/><line class="cls-2" x1="72.59" y1="5.33" x2="72.59" y2="0.5"/><line class="cls-2" x1="88.67" y1="5.33" x2="88.67" y2="0.5"/></g></g></svg>