<?xml version="1.0" encoding="utf-8"?>
<!-- Generator: Adobe Illustrator 21.0.0, SVG Export Plug-In . SVG Version: 6.00 Build 0)  -->
<svg version="1.1" id="Layer_1" xmlns="http://www.w3.org/2000/svg" xmlns:xlink="http://www.w3.org/1999/xlink" x="0px" y="0px"
	 viewBox="0 0 464.1 49.2" style="enable-background:new 0 0 464.1 49.2;" xml:space="preserve">
<style type="text/css">
	.st0{fill:#ffffff;}
</style>
<g>
	<path class="st0" d="M0,1l6.2,0l5,25.8c0.9,5.1,1.9,10.2,2.8,15.3l0.3,0c1-5.1,2.2-10.3,3.3-15.3L24.2,1l5.5,0l6.6,25.8
		c1.1,5,2.3,10.2,3.4,15.3l0.3,0c0.9-5.1,1.8-10.3,2.7-15.3l5-25.8l5.9,0l-9.8,47.4l-7.3,0l-7.2-28.5c-0.8-3.7-1.6-7.1-2.3-10.8
		l-0.3,0c-0.8,3.7-1.6,7.1-2.4,10.8l-7.1,28.6l-7.2,0L0,1z"/>
	<path class="st0" d="M72.8,0.9l27.3,0l0,5.1L78.9,6l0,14.9l17.9,0l0,5.1l-17.9,0l0,17.2l22,0l0,5.1l-28,0L72.8,0.9z"/>
	<path class="st0" d="M122.4,38c3.4,3.5,8.1,5.9,13.1,5.9c6.2,0,9.9-3.1,9.9-7.7c0-4.8-3.5-6.4-8-8.4l-6.8-3
		c-4.4-1.9-9.6-5.3-9.6-12.2C121,5.4,127.3,0,135.9,0c5.6,0,10.6,2.4,14,5.8l-3.2,3.9c-2.9-2.7-6.4-4.5-10.8-4.5
		c-5.3,0-8.9,2.7-8.9,6.9c0,4.6,4.2,6.3,7.9,7.9l6.8,2.9c5.5,2.4,9.8,5.6,9.8,12.6c0,7.5-6.2,13.5-16.2,13.5c-6.6,0-12.4-2.7-16.6-7
		L122.4,38z"/>
	<path class="st0" d="M180.4,5.9l-14.4,0l0-5.1l34.8,0l0,5.1l-14.4,0l0,42.4l-6,0L180.4,5.9z"/>
	<path class="st0" d="M239.1,0.9l9.2,0l8.6,23.3l3.1,9l0.3,0l3.1-9l8.3-23.3l9.3,0l0,47.3l-7.9,0l0-21.6c0-4.4,0.6-10.7,1.1-15
		l-0.3,0L270,22.3l-8.1,21.5l-3.8,0l-8.2-21.5L246,11.5l-0.3,0c0.4,4.3,1,10.6,1,15l0,21.6l-7.7,0L239.1,0.9z"/>
	<path class="st0" d="M330,48.1l-10.2-18.5l-7.2,0l0,18.5l-8.4,0l0-47.3l15.9,0c9.8,0,17.4,3.5,17.4,14c0,7.2-3.7,11.6-9.5,13.5
		l11.3,19.7L330,48.1z M312.7,22.9l6.6,0c6.5,0,10-2.8,10-8.1c0-5.4-3.5-7.3-10-7.3l-6.6,0L312.7,22.9z"/>
	<path class="st0" d="M358.9,0.8l8.4,0l0,21.5l0.2,0l16.8-21.5l9.3,0l-14.5,18.4l17,28.8l-9.3,0l-12.7-22.2l-6.8,8.5l0,13.8l-8.4,0
		L358.9,0.8z"/>
	<path class="st0" d="M421.4,7.8l-13.7,0l0-7.1l35.6,0l0,7.1l-13.6,0l0,40.2l-8.4,0L421.4,7.8z"/>
	<path class="st0" d="M458.8,37.5c3,0,5.4,2.4,5.4,5.6c0,3.3-2.3,5.6-5.3,5.6c-3,0-5.4-2.4-5.4-5.6S455.7,37.5,458.8,37.5z"/>
</g>
</svg>
