<?xml version="1.0" encoding="UTF-8"?>
<svg width="13px" height="14px" viewBox="0 0 13 14" version="1.1" xmlns="http://www.w3.org/2000/svg" xmlns:xlink="http://www.w3.org/1999/xlink">
    <!-- Generator: Sketch 43.1 (39012) - http://www.bohemiancoding.com/sketch -->
    <title>delete-icon</title>
    <desc>Created with Sketch.</desc>
    <defs></defs>
    <g id="Mobile" stroke="none" stroke-width="1" fill="none" fill-rule="evenodd">
        <g id="Saved-Not-Available" transform="translate(-343.000000, -69.000000)" fill-rule="nonzero" fill="#ADADAD">
            <g id="delete-icon" transform="translate(343.000000, 69.000000)">
                <path d="M12.5967742,1.89230769 L9.27419355,1.89230769 L9.27419355,1 C9.27419355,0.446153846 8.80645161,0 8.22580645,0 L4.77419355,0 C4.19354839,0 3.72580645,0.446153846 3.72580645,1 L3.72580645,1.89230769 L0.403225806,1.89230769 C0.177419355,1.89230769 0,2.06153846 0,2.27692308 C0,2.49230769 0.177419355,2.66153846 0.403225806,2.66153846 L1.16129032,2.66153846 L1.66129032,12.7384615 C1.69354839,13.4461538 2.29032258,14 3.03225806,14 L9.9516129,14 C10.6935484,14 11.2903226,13.4461538 11.3225806,12.7384615 L11.8387097,2.66153846 L12.5967742,2.66153846 C12.8225806,2.66153846 13,2.49230769 13,2.27692308 C13,2.06153846 12.8225806,1.89230769 12.5967742,1.89230769 Z M4.77419355,0.769230769 L8.24193548,0.769230769 C8.37096774,0.769230769 8.48387097,0.876923077 8.48387097,1 L8.48387097,1.89230769 L4.53225806,1.89230769 L4.53225806,1 C4.53225806,0.876923077 4.62903226,0.769230769 4.77419355,0.769230769 Z M10.5322581,12.7076923 C10.516129,13 10.2741935,13.2307692 9.96774194,13.2307692 L3.03225806,13.2307692 C2.72580645,13.2307692 2.48387097,13 2.46774194,12.7076923 L1.96774194,2.66153846 L11.0322581,2.66153846 L10.5322581,12.7076923 Z" id="Shape"></path>
                <path d="M6.38468808,5 C6.16926276,5 6,5.16926276 6,5.38468808 L6,10.7703212 C6,10.9857465 6.16926276,11.1550093 6.38468808,11.1550093 C6.60011341,11.1550093 6.76937616,10.9857465 6.76937616,10.7703212 L6.76937616,5.38468808 C6.76937616,5.18465028 6.60011341,5 6.38468808,5 Z" id="Shape"></path>
                <path d="M4.64627598,5.10771266 C4.56933836,5.03077505 4.47701322,5 4.36930056,5 L4.36930056,5.07693762 L4.36930056,5 C4.2615879,5 4.16926276,5.04616257 4.10771266,5.12310019 C4.03077505,5.2000378 4,5.29236294 4,5.4000756 L4.18465028,10.7857087 C4.18465028,11.0011341 4.36930056,11.1550093 4.58472588,11.1550093 L4.58472588,11.1550093 C4.69243855,11.1550093 4.78476369,11.1088467 4.84631378,11.0319091 C4.9232514,10.9549715 4.95402644,10.8626464 4.95402644,10.7549337 L4.76937616,5.36930056 C4.76937616,5.27697542 4.72321359,5.16926276 4.64627598,5.10771266 Z" id="Shape"></path>
                <path d="M8.58472588,5 L8.58472588,5.07693762 L8.58472588,5 C8.36930056,5 8.2000378,5.15387523 8.18465028,5.36930056 L8,10.7549337 C8,10.8626464 8.03077505,10.9549715 8.10771266,11.0319091 C8.18465028,11.1088467 8.27697542,11.1550093 8.38468808,11.1550093 C8.60011341,11.1550093 8.76937616,10.9857465 8.76937616,10.7857087 L8.95402644,5.4000756 C8.95402644,5.29236294 8.9232514,5.2000378 8.84631378,5.12310019 C8.78476369,5.04616257 8.69243855,5.01538752 8.58472588,5 Z" id="Shape"></path>
            </g>
        </g>
    </g>
</svg>